<?xml version="1.0" encoding="UTF-8" standalone="no"?>
<!-- Created with Inkscape (http://www.inkscape.org/) -->

<svg
   xmlns:dc="http://purl.org/dc/elements/1.1/"
   xmlns:cc="http://creativecommons.org/ns#"
   xmlns:rdf="http://www.w3.org/1999/02/22-rdf-syntax-ns#"
   xmlns:svg="http://www.w3.org/2000/svg"
   xmlns="http://www.w3.org/2000/svg"
   xmlns:sodipodi="http://sodipodi.sourceforge.net/DTD/sodipodi-0.dtd"
   xmlns:inkscape="http://www.inkscape.org/namespaces/inkscape"
   width="300"
   height="300"
   viewBox="0 0 300 300"
   version="1.1"
   id="svg2216"
   inkscape:version="0.92.3 (2405546, 2018-03-11)"
   sodipodi:docname="_NEW-MASTER-TEMPLATE-FRAME.svg">
  <title>logo</title>
  <defs
     id="defs2210" />
  <sodipodi:namedview
     id="base"
     pagecolor="#ffffff"
     bordercolor="#666666"
     borderopacity="1.0"
     inkscape:pageopacity="0.0"
     inkscape:pageshadow="2"
     inkscape:zoom="1.4"
     inkscape:cx="130.38644"
     inkscape:cy="140.62169"
     inkscape:document-units="px"
     inkscape:current-layer="layer1"
     showgrid="false"
     units="px"
     inkscape:window-width="1280"
     inkscape:window-height="737"
     inkscape:window-x="-8"
     inkscape:window-y="-8"
     inkscape:window-maximized="1"
     fit-margin-top="10"
     fit-margin-left="10"
     fit-margin-bottom="10"
     fit-margin-right="10"
     inkscape:showpageshadow="false"
     scale-x="1" />
  <metadata
     id="metadata2213">
    <rdf:RDF>
      <cc:Work
         rdf:about="">
        <dc:format>image/svg+xml</dc:format>
        <dc:type
           rdf:resource="http://purl.org/dc/dcmitype/StillImage" />
        <dc:title></dc:title>
      </cc:Work>
    </rdf:RDF>
  </metadata>
  <g
     inkscape:label="Layer 1"
     inkscape:groupmode="layer"
     id="layer1"
     transform="translate(250.96359,-149.09241)">


<g
       aria-label="d"
       style="font-style:normal;font-variant:normal;font-weight:normal;font-stretch:normal;font-size:5.33333349px;line-height:1.25;font-family:'Open Sans';-inkscape-font-specification:'Open Sans, Normal';font-variant-ligatures:normal;font-variant-caps:normal;font-variant-numeric:normal;font-feature-settings:normal;text-align:start;letter-spacing:0px;word-spacing:0px;writing-mode:lr-tb;text-anchor:start;fill:#000000;fill-opacity:1;stroke:none"
       id="text824">
      <path
         d="m -143.43728,400.33611 c -16.20043,-5.08641 -45.06498,-23.4337 -50.51199,-38.39778 -0.98741,-4.65495 -0.70529,-24.54427 0.84636,-59.66797 0.14105,-5.92448 0.0705,-14.17643 -0.21159,-24.75586 -0.28212,-10.57943 -0.7872,-27.58148 -0.50508,-31.81325 0.53249,-15.53193 27.44564,-42.77569 46.9776,-41.7067 2.39801,-0.28211 3.8086,1.26954 4.23178,4.65495 l -0.12627,26.12412 c -0.14106,2.96223 -0.21159,5.00759 -0.21159,6.13606 0.56424,37.66277 0.63926,104.69553 -0.48922,159.42643 z m -84.78933,-154.77148 c 3.10329,4.51389 4.796,12.34266 5.07812,23.48633 0.14106,3.80859 0.14106,9.09831 0,15.86914 -0.14106,8.6046 -0.21159,14.38802 -0.21159,17.35026 v 45.27995 c -0.28211,1.26953 -1.05794,3.24436 -2.32747,5.92448 -1.12847,2.25695 -1.24628,3.75232 -1.24628,5.02185 18.88699,41.17976 62.78568,75.46412 113.89823,79.72449 -0.30009,-70.52052 -1.28332,-166.36992 0.11358,-278.37079 -38.922,3.03987 -93.07291,28.00556 -115.30459,85.71429 z"
         style="font-style:normal;font-variant:normal;font-weight:normal;font-stretch:normal;font-size:433.33334351px;font-family:'MONOGRAMOS left';-inkscape-font-specification:'MONOGRAMOS left';fill:#fafafa;fill-opacity:1"
         id="path822"
         inkscape:connector-curvature="0"
         sodipodi:nodetypes="cccscccccccccscccccc" />
    </g>



<g
       aria-label="k"
       style="font-style:normal;font-variant:normal;font-weight:normal;font-stretch:normal;font-size:5.33333349px;line-height:1.25;font-family:'Open Sans';-inkscape-font-specification:'Open Sans, Normal';font-variant-ligatures:normal;font-variant-caps:normal;font-variant-numeric:normal;font-feature-settings:normal;text-align:start;letter-spacing:0px;word-spacing:0px;writing-mode:lr-tb;text-anchor:start;fill:#fafafa;fill-opacity:1;stroke:none"
       id="text828">
      <path
         d="m 14.781859,297.17186 9.521484,-14.38802 c 5.783421,-8.46354 8.74566,-13.82378 8.886719,-16.08073 0.564236,-6.91189 -4.796007,-20.3125 -16.080729,-40.20182 -10.0151917,-17.49132 -18.6459522,-26.62605 -25.1346675,-30.43464 -0.025171,15.17892 0.5858428,17.89664 -0.1262693,38.03824 9.737775,10.44079 9.7247723,21.93424 8.8729153,31.75187 -0.5642367,5.64236 -3.173829,10.29731 -7.828777,13.96484 -5.5013015,4.37283 -42.5650415,5.07813 -49.4769345,2.11589 -0.141059,-9.87413 -0.141059,-27.15387 0,-51.8392 0.141059,-24.12109 1.391059,-51.00167 1.25,-62.42745 -10.352803,-3.6601 -20.193918,-4.84267 -31.30906,-7.11914 -1.269531,91.40625 -0.955716,185.56875 0.313815,276.975 12.413195,-2.25694 20.152123,-2.778 29.782774,-7.49785 0.705295,-11.42578 0.10353,-40.04014 -0.03753,-62.60959 -0.141059,-29.19922 -0.141059,-46.47895 0,-51.8392 6.206597,-3.24435 41.199808,-2.75065 47.2653465,1.48112 5.219184,3.8086 8.1814237,8.39302 8.886719,13.75326 2.5185835,9.32889 -2.1066516,17.28193 -9.7141935,30.46271 0.07894,15.85656 0.7901637,22.25501 2.5000005,41.05422 10.4997524,-8.94405 19.5909705,-21.24861 24.7558605,-30.46875 11.284722,-20.3125 16.644965,-33.99523 16.080729,-41.04818 -0.282118,-3.80859 -3.526476,-9.52148 -9.733073,-17.13867 -6.065538,-7.19401 -8.957249,-12.69532 -8.675129,-16.50391 z"
         style="font-style:normal;font-variant:normal;font-weight:normal;font-stretch:normal;font-size:433.33334351px;font-family:'MONOGRAMOS right';-inkscape-font-specification:'MONOGRAMOS right';fill:#fafafa;fill-opacity:1"
         id="path822"
         inkscape:connector-curvature="0"
         sodipodi:nodetypes="cccccccccccccccccccccccc" />
    </g>




  </g>
</svg>
